<?xml version="1.0" standalone="no"?>
<!DOCTYPE svg PUBLIC "-//W3C//DTD SVG 20010904//EN"
 "http://www.w3.org/TR/2001/REC-SVG-20010904/DTD/svg10.dtd">
<svg version="1.0" xmlns="http://www.w3.org/2000/svg"
 width="1682.000000pt" height="1682.000000pt" viewBox="0 0 1682.000000 1682.000000"
 preserveAspectRatio="xMidYMid meet">
<metadata>
Created by potrace 1.11, written by Peter Selinger 2001-2013
</metadata>
<g transform="translate(0.000000,1682.000000) scale(0.100000,-0.100000)"
fill="#000000" stroke="none">
<path d="M3844 16427 l-201 -9 -18 -37 c-21 -46 -77 -135 -87 -139 -5 -2 -8
-9 -8 -16 0 -6 -29 -48 -64 -93 -36 -45 -76 -99 -89 -120 l-25 -40 51 -25 c75
-37 116 -55 169 -72 80 -26 244 -113 402 -213 83 -53 159 -103 169 -111 16
-15 17 -320 15 -6461 -3 -5711 -5 -6448 -18 -6467 -14 -19 -67 -83 -113 -138
-10 -11 -55 -60 -99 -108 -45 -49 -88 -99 -97 -112 -9 -13 -37 -51 -63 -86
-27 -34 -48 -67 -48 -72 0 -7 114 -10 338 -8 185 2 731 2 1212 2 481 -1 893 1
915 3 22 2 86 4 143 5 117 3 123 7 102 71 -9 27 -19 39 -32 39 -10 0 -18 4
-18 8 0 5 -37 40 -81 78 -143 121 -159 136 -159 148 0 6 -28 39 -62 72 -43 42
-69 77 -81 110 -10 27 -23 58 -29 68 -7 13 -10 1029 -9 3185 1 1741 3 3167 5
3168 1 2 38 8 80 13 93 12 92 12 206 -88 137 -121 164 -153 372 -444 37 -51
77 -107 90 -125 41 -56 162 -216 229 -299 35 -45 102 -134 149 -199 47 -64
123 -166 170 -225 47 -59 103 -133 125 -164 22 -31 91 -125 152 -209 128 -173
124 -166 201 -266 31 -41 71 -93 87 -116 17 -24 43 -58 58 -76 57 -69 164
-212 237 -314 41 -58 108 -149 148 -203 40 -53 83 -113 95 -132 11 -19 24 -37
27 -40 7 -5 58 -76 112 -157 16 -23 34 -45 39 -49 5 -3 21 -23 34 -44 14 -21
63 -87 109 -147 47 -59 100 -128 118 -152 18 -24 50 -63 71 -86 21 -24 48 -56
60 -73 12 -17 67 -85 122 -152 55 -67 133 -163 174 -214 40 -50 87 -107 105
-127 17 -20 69 -82 116 -139 47 -57 106 -126 131 -154 25 -28 50 -58 55 -68
19 -34 365 -389 529 -543 253 -237 416 -376 549 -469 22 -16 57 -43 76 -60 19
-17 60 -46 90 -65 80 -49 195 -122 270 -170 174 -111 784 -387 985 -446 75
-21 166 -55 182 -67 7 -5 72 -29 145 -52 73 -24 156 -52 183 -63 56 -23 284
-93 302 -93 6 0 13 -4 15 -8 2 -4 26 -15 53 -24 28 -9 77 -26 110 -38 33 -12
103 -35 155 -51 52 -17 113 -38 135 -48 42 -20 65 -30 305 -131 80 -34 152
-67 160 -75 8 -7 40 -23 70 -35 60 -23 137 -66 158 -87 8 -7 23 -18 34 -24 28
-15 74 -55 129 -111 69 -70 88 -162 50 -236 -66 -128 -203 -186 -441 -185
-127 0 -173 5 -440 53 -25 5 -74 18 -110 29 -36 11 -74 21 -84 21 -25 0 -333
89 -366 105 -14 7 -86 31 -160 53 -123 37 -234 73 -495 163 -49 17 -103 34
-120 39 -28 8 -366 124 -610 209 -60 21 -166 58 -235 81 -69 23 -163 56 -210
72 -47 16 -116 39 -155 50 -38 11 -106 33 -150 48 -44 15 -141 46 -215 69 -74
23 -150 49 -169 57 -34 15 -176 56 -426 124 -77 21 -167 45 -200 54 -148 41
-387 104 -445 117 -57 13 -68 15 -337 83 -123 31 -229 56 -237 56 -8 0 -16 5
-18 12 -3 8 -60 11 -204 9 -208 -1 -318 -11 -444 -37 -93 -19 -321 -83 -335
-94 -5 -4 -27 -13 -47 -19 -65 -21 -169 -79 -239 -134 -27 -20 -52 -37 -57
-37 -14 0 -152 -141 -206 -210 -98 -125 -140 -288 -117 -453 29 -204 97 -305
255 -382 162 -78 288 -98 738 -115 568 -22 938 -64 1253 -141 133 -33 346
-125 373 -161 7 -10 19 -18 26 -18 17 0 51 -30 59 -52 3 -10 12 -18 19 -18 7
-1 43 -63 80 -138 75 -153 106 -195 213 -281 182 -148 351 -246 530 -306 100
-34 229 -38 317 -11 65 20 170 84 211 130 103 112 116 303 34 460 -87 165
-252 261 -522 305 -370 60 -429 66 -545 51 -101 -13 -159 -33 -214 -75 l-34
-26 -40 41 c-23 22 -46 40 -53 40 -6 0 -24 9 -40 21 -82 58 -265 136 -394 168
-314 77 -686 119 -1249 141 -456 17 -597 40 -756 122 -103 53 -155 111 -188
212 -20 60 -21 75 -12 129 17 100 47 171 102 242 48 62 187 205 200 205 5 0
30 17 57 38 70 54 174 112 239 133 20 6 42 15 47 19 13 10 237 73 330 93 197
43 460 47 610 9 44 -11 150 -36 235 -57 85 -20 180 -43 210 -52 64 -17 95 -25
210 -53 81 -19 236 -60 365 -96 33 -9 123 -33 200 -54 249 -67 392 -109 426
-124 38 -17 285 -96 299 -96 5 0 33 -11 62 -24 29 -13 69 -27 88 -31 48 -9
141 -39 225 -71 136 -51 381 -135 420 -144 22 -5 78 -23 125 -40 47 -18 103
-38 125 -45 22 -7 73 -27 113 -44 40 -16 107 -40 150 -51 126 -35 255 -77 317
-105 46 -21 149 -54 202 -65 27 -6 64 -17 83 -24 112 -45 639 -206 675 -206
11 0 49 -10 85 -21 36 -11 85 -24 110 -29 286 -51 309 -54 470 -54 229 0 339
31 426 121 72 75 84 111 84 251 0 136 -8 169 -65 272 -18 32 -170 186 -200
203 -12 6 -47 27 -76 44 -47 28 -125 66 -424 203 -33 16 -89 42 -125 58 -36
17 -87 40 -115 50 -27 11 -133 64 -235 118 -185 98 -515 265 -600 304 -25 12
-90 46 -145 75 -55 30 -118 64 -140 75 -68 36 -344 202 -395 239 -58 41 -137
91 -145 91 -5 0 -16 6 -24 14 -9 7 -47 30 -86 51 -38 21 -92 52 -120 69 -27
18 -86 55 -130 83 -184 115 -215 136 -215 143 0 4 -30 28 -67 54 -38 25 -96
67 -129 94 -77 59 -341 290 -346 301 -2 4 -25 27 -53 51 -105 89 -368 357
-521 529 -22 24 -61 67 -89 96 -27 29 -88 98 -135 155 -47 57 -101 121 -121
144 -19 23 -53 64 -75 91 -21 28 -95 117 -164 199 -69 81 -132 158 -140 170
-8 11 -32 42 -55 67 -22 25 -55 65 -73 90 -18 24 -71 92 -117 152 -47 59 -92
119 -102 135 -9 15 -31 43 -48 63 -16 20 -46 60 -65 88 -54 80 -194 274 -256
356 -8 11 -50 70 -94 130 -87 121 -184 250 -243 321 -21 26 -46 59 -55 73 -9
14 -36 51 -60 81 -24 30 -59 75 -78 100 -52 68 -254 341 -299 406 -47 66 -122
165 -164 214 -26 31 -171 226 -211 284 -8 11 -46 62 -86 111 -113 143 -178
230 -302 403 -171 240 -222 303 -307 387 -51 50 -103 99 -116 110 -49 41 -50
47 -28 106 30 78 105 215 154 279 23 30 59 82 81 115 43 66 116 168 164 230
17 22 82 112 144 200 62 88 125 174 139 190 15 17 68 84 117 150 49 66 123
163 164 215 41 52 91 118 110 145 19 28 57 76 84 108 27 31 73 89 103 128 30
39 77 98 104 131 49 61 183 232 293 378 31 41 65 84 75 95 38 42 154 193 200
260 27 39 71 97 99 130 27 33 82 103 121 155 40 52 90 116 112 141 22 25 69
88 105 140 36 52 83 114 106 139 36 40 319 410 399 522 37 52 227 304 309 411
34 44 77 101 96 127 19 26 64 88 99 136 36 49 103 139 151 199 93 120 274 359
330 435 46 63 72 97 215 276 112 140 159 202 211 278 12 17 53 63 93 101 39
39 71 75 71 81 0 6 9 19 21 30 11 10 46 53 77 94 68 91 207 254 253 296 19 17
54 39 79 49 25 10 65 27 90 38 25 11 63 28 85 38 126 56 185 85 185 90 0 4 26
17 58 29 31 12 97 40 146 63 l88 42 -6 90 c-4 50 -9 105 -12 123 l-6 32 -232
0 c-127 0 -377 -7 -556 -15 -179 -7 -451 -17 -605 -21 -159 -4 -285 -11 -292
-17 -21 -16 -17 -187 5 -213 9 -12 75 -51 146 -88 128 -66 201 -111 243 -148
l21 -20 -35 -46 c-19 -26 -51 -65 -69 -87 -47 -55 -115 -143 -139 -181 -36
-56 -88 -126 -210 -278 -139 -175 -167 -211 -215 -276 -101 -137 -141 -189
-148 -192 -5 -2 -28 -30 -52 -63 -25 -33 -79 -103 -121 -155 -41 -52 -106
-138 -144 -190 -37 -52 -72 -97 -76 -100 -5 -3 -26 -33 -49 -65 -22 -33 -59
-85 -83 -116 -23 -31 -99 -133 -169 -225 -69 -93 -140 -187 -157 -209 -16 -22
-103 -137 -192 -255 -90 -118 -175 -228 -191 -243 -15 -15 -62 -78 -105 -139
-43 -61 -94 -130 -114 -152 -20 -23 -67 -81 -104 -131 -38 -49 -93 -121 -124
-159 -31 -37 -69 -87 -86 -109 -36 -50 -199 -256 -219 -277 -8 -8 -41 -51 -74
-95 -106 -140 -245 -319 -297 -383 -27 -33 -74 -92 -104 -131 -30 -39 -76 -97
-103 -128 -27 -32 -65 -80 -84 -108 -19 -27 -69 -93 -110 -145 -41 -52 -115
-149 -164 -215 -49 -66 -101 -132 -115 -147 -14 -15 -77 -100 -139 -190 -63
-90 -129 -181 -146 -203 -47 -60 -120 -163 -165 -230 -21 -33 -73 -106 -115
-163 -123 -168 -169 -233 -216 -307 -24 -38 -49 -71 -54 -73 -6 -2 -10 -8 -10
-13 0 -5 -17 -32 -37 -59 -31 -41 -43 -50 -68 -50 l-32 0 -6 1958 c-4 1076 -7
2450 -7 3053 l0 1095 43 40 c23 22 83 76 132 119 50 43 101 88 115 101 14 12
63 53 110 90 126 102 137 113 144 145 7 35 -11 79 -32 79 -8 0 -51 24 -96 54
-115 75 -188 121 -211 131 -61 27 -177 33 -590 33 -236 1 -487 1 -557 2 -70 1
-132 -1 -137 -4 -5 -4 -135 -2 -288 4 -430 16 -523 16 -739 7z m6505 -15133
c18 -4 35 -13 38 -20 6 -16 -53 -149 -74 -166 -10 -8 -23 -8 -54 2 -31 10 -42
11 -48 2 -11 -18 0 -82 14 -82 7 0 19 -7 26 -16 11 -14 8 -27 -23 -88 -20 -39
-44 -88 -54 -109 -9 -22 -23 -41 -31 -44 -20 -8 -89 41 -158 111 -57 58 -155
221 -155 259 0 21 77 95 124 119 79 40 274 56 395 32z m339 -55 c113 -23 216
-58 276 -93 64 -37 159 -137 196 -207 30 -56 32 -67 28 -128 -8 -110 -59 -184
-176 -260 -130 -82 -245 -94 -402 -42 -184 63 -410 188 -410 229 0 31 110 232
127 232 8 0 33 -10 54 -22 28 -16 42 -19 50 -11 18 18 -11 82 -43 99 -16 8
-28 19 -28 25 0 6 15 43 34 82 18 40 39 85 45 101 l12 29 72 -8 c40 -3 114
-15 165 -26z"/>
<path d="M10095 1266 c-118 -19 -215 -77 -215 -130 0 -40 72 -167 125 -221 76
-77 119 -107 133 -93 7 7 12 16 12 22 0 5 16 40 35 77 19 38 35 70 35 72 0 3
-8 7 -18 9 -21 6 -37 82 -26 125 7 24 9 25 64 20 l57 -5 27 55 c15 31 25 57
23 60 -6 5 -126 23 -152 22 -11 -1 -56 -7 -100 -13z"/>
<path d="M10464 1213 c-3 -15 -12 -37 -19 -49 -8 -11 -20 -38 -29 -58 -15 -36
-15 -37 7 -47 33 -15 57 -101 41 -143 -8 -21 -72 -21 -98 -1 -11 8 -23 15 -27
15 -5 0 -30 -43 -57 -95 l-49 -96 56 -39 c126 -85 392 -191 481 -192 66 0 150
27 222 74 104 67 154 136 165 227 5 42 1 57 -27 109 -96 181 -272 272 -612
317 -46 6 -48 5 -54 -22z"/>
</g>
</svg>
